ISO-10303-21;
HEADER;
FILE_DESCRIPTION(
  ('This file contains a STEP AP42 implementation'
    ,'as created by ZW3D STEP Interface translator.')
  ,'2;1'
  );
FILE_NAME(
  '6mm大扭矩法兰联轴器（不带键槽）.stp'
  ,'24 514.135010',
  (''),
  ('ZWCAD Software Co.'),
  'Version 1.0',
  'ZW3D to STEP translator',
  ''
  );
FILE_SCHEMA(('AUTOMOTIVE_DESIGN { 1 0 10303 214 1 1 1 1 }'));
ENDSEC;

DATA;

/**File Base Unit**/
#1 = (LENGTH_UNIT()NAMED_UNIT(*)SI_UNIT(.MILLI.,.METRE.));
#2 = (NAMED_UNIT(*)PLANE_ANGLE_UNIT()SI_UNIT($,.RADIAN.));
#3 = (NAMED_UNIT(*)SI_UNIT($,.STERADIAN.)SOLID_ANGLE_UNIT());
#4 = UNCERTAINTY_MEASURE_WITH_UNIT(LENGTH_MEASURE(0.01),#1,'DISTANCE_ACCURACY_VALUE','Maximum Tolerance applied to model');
#5 = (GEOMETRIC_REPRESENTATION_CONTEXT(3)GLOBAL_UNCERTAINTY_ASSIGNED_CONTEXT((#4))GLOBAL_UNIT_ASSIGNED_CONTEXT((#1,#2,#3))REPRESENTATION_CONTEXT('STEP 203','TOP_LEVEL_ASSEMBLY_PART'));

/**product_definition_shape**/
#6=APPLICATION_CONTEXT('mechanical parts and assemblies' );
#7=DESIGN_CONTEXT('NONE',#6,'design');
#8=MECHANICAL_CONTEXT('NONE',#6,'mechanical');
#9=PRODUCT('0','Part','',(#8));
#10=PRODUCT_DEFINITION_FORMATION_WITH_SPECIFIED_SOURCE('ANY','',#9,.NOT_KNOWN.);
#11=PRODUCT_DEFINITION('UNKNOWN','',#10,#7);
#12=PRODUCT_DEFINITION_SHAPE('NONE','NONE',#11);
#13=PRODUCT_RELATED_PRODUCT_CATEGORY('detail','',(#9));
/**geometry information**/
#14=CARTESIAN_POINT('',(0.,0.,0.));
#15=DIRECTION('',(0.,0.,1.));
#16=DIRECTION('',(1.,0.,0.));
#17=AXIS2_PLACEMENT_3D('',#14,#15,#16);
#18=APPLICATION_CONTEXT('part');
#19=MECHANICAL_CONTEXT('none',#18,'component');
#20=PRODUCT('6mm大扭矩法兰联轴器（不带键槽）','6mm大扭矩法兰联轴器（不带键槽）','',(#19));
#21=PRODUCT_RELATED_PRODUCT_CATEGORY('detail','',(#20));
#22=PRODUCT_DEFINITION_FORMATION_WITH_SPECIFIED_SOURCE('ANY','UNSPECIFIED',#20,.NOT_KNOWN.);
#23=APPLICATION_CONTEXT('part');
#24=APPLICATION_PROTOCOL_DEFINITION('international standard','config_control_design',1994,#23);
#25=DESIGN_CONTEXT('detailed',#23,'design');
#26=PRODUCT_DEFINITION('','UNSPECIFIED',#22,#25);
#27=PRODUCT_DEFINITION_SHAPE('NONE','NONE',#26);
#28=SHAPE_REPRESENTATION('6mm大扭矩法兰联轴器（不带键槽）',(#17),#5);
#29=SHAPE_DEFINITION_REPRESENTATION(#27,#28);
#30=CARTESIAN_POINT('',(-7.6097570650439,-1.4210854715202E-14,0.));
#31=DIRECTION('',(1.,0.,0.));
#32=DIRECTION('',(0.,0.,-1.));
#33=AXIS2_PLACEMENT_3D('',#30,#32,#31);
#34=PLANE('',#33);
#35=CARTESIAN_POINT('',(28.4,0.,0.));
#36=VERTEX_POINT('',#35);
#37=CARTESIAN_POINT('',(-2.8421709430404E-14,7.5364438016821E-15,0.));
#38=DIRECTION('',(1.,-2.6536773949585E-16,-0.));
#39=DIRECTION('',(0.,0.,-1.));
#40=AXIS2_PLACEMENT_3D('',#37,#39,#38);
#41=CIRCLE('',#40,28.4);
#42=EDGE_CURVE('',#36,#36,#41,.T.);
#43=ORIENTED_EDGE('',*,*,#42,.T.);
#44=EDGE_LOOP('',(#43));
#45=FACE_OUTER_BOUND('',#44,.T.);
#46=CARTESIAN_POINT('',(3.,0.,0.));
#47=VERTEX_POINT('',#46);
#48=CARTESIAN_POINT('',(-3.5527136788005E-15,2.0411201962889E-15,0.));
#49=DIRECTION('',(1.,-6.8037339876297E-16,-0.));
#50=DIRECTION('',(0.,-0.,1.));
#51=AXIS2_PLACEMENT_3D('',#48,#50,#49);
#52=CIRCLE('',#51,3.);
#53=EDGE_CURVE('',#47,#47,#52,.T.);
#54=ORIENTED_EDGE('',*,*,#53,.T.);
#55=EDGE_LOOP('',(#54));
#56=FACE_BOUND('',#55,.T.);
#57=CARTESIAN_POINT('',(-9.275,20.56810333988,0.));
#58=VERTEX_POINT('',#57);
#59=CARTESIAN_POINT('',(-11.875,20.56810333988,0.));
#60=DIRECTION('',(1.,-2.4155268595135E-16,-0.));
#61=DIRECTION('',(0.,-0.,1.));
#62=AXIS2_PLACEMENT_3D('',#59,#61,#60);
#63=CIRCLE('',#62,2.6);
#64=EDGE_CURVE('',#58,#58,#63,.T.);
#65=ORIENTED_EDGE('',*,*,#64,.T.);
#66=EDGE_LOOP('',(#65));
#67=FACE_BOUND('',#66,.T.);
#68=CARTESIAN_POINT('',(13.85,19.48557158515,0.));
#69=VERTEX_POINT('',#68);
#70=CARTESIAN_POINT('',(11.25,19.48557158515,0.));
#71=DIRECTION('',(1.,-0.,-0.));
#72=DIRECTION('',(0.,-0.,1.));
#73=AXIS2_PLACEMENT_3D('',#70,#72,#71);
#74=CIRCLE('',#73,2.6);
#75=EDGE_CURVE('',#69,#69,#74,.T.);
#76=ORIENTED_EDGE('',*,*,#75,.T.);
#77=EDGE_LOOP('',(#76));
#78=FACE_BOUND('',#77,.T.);
#79=CARTESIAN_POINT('',(-19.9,-6.3681633555662E-16,0.));
#80=VERTEX_POINT('',#79);
#81=CARTESIAN_POINT('',(-22.5,3.1314055652844E-15,0.));
#82=DIRECTION('',(1.,-1.4493161157081E-15,-0.));
#83=DIRECTION('',(0.,-0.,1.));
#84=AXIS2_PLACEMENT_3D('',#81,#83,#82);
#85=CIRCLE('',#84,2.6);
#86=EDGE_CURVE('',#80,#80,#85,.T.);
#87=ORIENTED_EDGE('',*,*,#86,.T.);
#88=EDGE_LOOP('',(#87));
#89=FACE_BOUND('',#88,.T.);
#90=CARTESIAN_POINT('',(13.85,-19.48557158515,0.));
#91=VERTEX_POINT('',#90);
#92=CARTESIAN_POINT('',(11.25,-19.48557158515,0.));
#93=DIRECTION('',(1.,-0.,-0.));
#94=DIRECTION('',(0.,-0.,1.));
#95=AXIS2_PLACEMENT_3D('',#92,#94,#93);
#96=CIRCLE('',#95,2.6);
#97=EDGE_CURVE('',#91,#91,#96,.T.);
#98=ORIENTED_EDGE('',*,*,#97,.T.);
#99=EDGE_LOOP('',(#98));
#100=FACE_BOUND('',#99,.T.);
#101=CARTESIAN_POINT('',(26.35,-6.3681633555662E-16,0.));
#102=VERTEX_POINT('',#101);
#103=CARTESIAN_POINT('',(23.75,-3.1489642694507E-15,0.));
#104=DIRECTION('',(1.,9.662107438054E-16,-0.));
#105=DIRECTION('',(0.,0.,1.));
#106=AXIS2_PLACEMENT_3D('',#103,#105,#104);
#107=CIRCLE('',#106,2.6);
#108=EDGE_CURVE('',#102,#102,#107,.T.);
#109=ORIENTED_EDGE('',*,*,#108,.T.);
#110=EDGE_LOOP('',(#109));
#111=FACE_BOUND('',#110,.T.);
#112=CARTESIAN_POINT('',(-9.275,-20.56810333988,0.));
#113=VERTEX_POINT('',#112);
#114=CARTESIAN_POINT('',(-11.875,-20.56810333988,0.));
#115=DIRECTION('',(1.,-4.831053719027E-16,-0.));
#116=DIRECTION('',(0.,-0.,1.));
#117=AXIS2_PLACEMENT_3D('',#114,#116,#115);
#118=CIRCLE('',#117,2.6);
#119=EDGE_CURVE('',#113,#113,#118,.T.);
#120=ORIENTED_EDGE('',*,*,#119,.T.);
#121=EDGE_LOOP('',(#120));
#122=FACE_BOUND('',#121,.T.);
#123=ADVANCED_FACE('',(#45,#56,#67,#78,#89,#100,#111,#122),#34,.T.);
#124=CARTESIAN_POINT('',(-7.6097570650439,-1.4210854715202E-14,6.));
#125=DIRECTION('',(1.,0.,0.));
#126=DIRECTION('',(0.,0.,1.));
#127=AXIS2_PLACEMENT_3D('',#124,#126,#125);
#128=PLANE('',#127);
#129=CARTESIAN_POINT('',(28.4,0.,6.));
#130=VERTEX_POINT('',#129);
#131=CARTESIAN_POINT('',(-1.0658141036402E-14,2.512147933894E-15,6.));
#132=DIRECTION('',(1.,-8.8455913165283E-17,1.105698914566E-17));
#133=DIRECTION('',(-1.105698914566E-17,-1.105698914566E-17,1.));
#134=AXIS2_PLACEMENT_3D('',#131,#133,#132);
#135=CIRCLE('',#134,28.4);
#136=EDGE_CURVE('',#130,#130,#135,.T.);
#137=ORIENTED_EDGE('',*,*,#136,.T.);
#138=EDGE_LOOP('',(#137));
#139=FACE_OUTER_BOUND('',#138,.T.);
#140=CARTESIAN_POINT('',(15.,0.,6.));
#141=VERTEX_POINT('',#140);
#142=CARTESIAN_POINT('',(3.5527136788005E-15,0.,6.));
#143=DIRECTION('',(1.,0.,-0.));
#144=DIRECTION('',(0.,-0.,-1.));
#145=AXIS2_PLACEMENT_3D('',#142,#144,#143);
#146=CIRCLE('',#145,15.);
#147=EDGE_CURVE('',#141,#141,#146,.T.);
#148=ORIENTED_EDGE('',*,*,#147,.T.);
#149=EDGE_LOOP('',(#148));
#150=FACE_BOUND('',#149,.T.);
#151=CARTESIAN_POINT('',(-9.275,20.56810333988,6.));
#152=VERTEX_POINT('',#151);
#153=CARTESIAN_POINT('',(-11.875,20.56810333988,6.));
#154=DIRECTION('',(1.,2.4155268595135E-16,2.4155268595135E-16));
#155=DIRECTION('',(2.4155268595135E-16,-2.4155268595135E-16,-1.));
#156=AXIS2_PLACEMENT_3D('',#153,#155,#154);
#157=CIRCLE('',#156,2.6);
#158=EDGE_CURVE('',#152,#152,#157,.T.);
#159=ORIENTED_EDGE('',*,*,#158,.T.);
#160=EDGE_LOOP('',(#159));
#161=FACE_BOUND('',#160,.T.);
#162=CARTESIAN_POINT('',(13.85,19.48557158515,6.));
#163=VERTEX_POINT('',#162);
#164=CARTESIAN_POINT('',(11.25,19.48557158515,6.));
#165=DIRECTION('',(1.,5.8347700090311E-32,2.4155268595135E-16));
#166=DIRECTION('',(2.4155268595135E-16,-2.4155268595135E-16,-1.));
#167=AXIS2_PLACEMENT_3D('',#164,#166,#165);
#168=CIRCLE('',#167,2.6);
#169=EDGE_CURVE('',#163,#163,#168,.T.);
#170=ORIENTED_EDGE('',*,*,#169,.T.);
#171=EDGE_LOOP('',(#170));
#172=FACE_BOUND('',#171,.T.);
#173=CARTESIAN_POINT('',(-19.9,-6.3681633555662E-16,6.));
#174=VERTEX_POINT('',#173);
#175=CARTESIAN_POINT('',(-22.5,6.192576313904E-16,6.));
#176=DIRECTION('',(1.,-4.831053719027E-16,2.4155268595135E-16));
#177=DIRECTION('',(2.4155268595135E-16,-2.4155268595135E-16,-1.));
#178=AXIS2_PLACEMENT_3D('',#175,#177,#176);
#179=CIRCLE('',#178,2.6);
#180=EDGE_CURVE('',#174,#174,#179,.T.);
#181=ORIENTED_EDGE('',*,*,#180,.T.);
#182=EDGE_LOOP('',(#181));
#183=FACE_BOUND('',#182,.T.);
#184=CARTESIAN_POINT('',(13.85,-19.48557158515,6.));
#185=VERTEX_POINT('',#184);
#186=CARTESIAN_POINT('',(11.25,-19.48557158515,6.));
#187=DIRECTION('',(1.,5.8347700090312E-32,2.4155268595135E-16));
#188=DIRECTION('',(2.4155268595135E-16,-2.4155268595135E-16,-1.));
#189=AXIS2_PLACEMENT_3D('',#186,#188,#187);
#190=CIRCLE('',#189,2.6);
#191=EDGE_CURVE('',#185,#185,#190,.T.);
#192=ORIENTED_EDGE('',*,*,#191,.T.);
#193=EDGE_LOOP('',(#192));
#194=FACE_BOUND('',#193,.T.);
#195=CARTESIAN_POINT('',(26.35,-6.3681633555662E-16,6.));
#196=VERTEX_POINT('',#195);
#197=CARTESIAN_POINT('',(23.75,1.8753315983374E-15,6.));
#198=DIRECTION('',(1.,-9.662107438054E-16,2.4155268595135E-16));
#199=DIRECTION('',(2.4155268595135E-16,-2.4155268595135E-16,-1.));
#200=AXIS2_PLACEMENT_3D('',#197,#199,#198);
#201=CIRCLE('',#200,2.6);
#202=EDGE_CURVE('',#196,#196,#201,.T.);
#203=ORIENTED_EDGE('',*,*,#202,.T.);
#204=EDGE_LOOP('',(#203));
#205=FACE_BOUND('',#204,.T.);
#206=CARTESIAN_POINT('',(-9.275,-20.56810333988,6.));
#207=VERTEX_POINT('',#206);
#208=CARTESIAN_POINT('',(-11.875,-20.56810333988,6.));
#209=DIRECTION('',(1.,4.831053719027E-16,1.2077634297567E-16));
#210=DIRECTION('',(1.2077634297567E-16,-1.2077634297567E-16,-1.));
#211=AXIS2_PLACEMENT_3D('',#208,#210,#209);
#212=CIRCLE('',#211,2.6);
#213=EDGE_CURVE('',#207,#207,#212,.T.);
#214=ORIENTED_EDGE('',*,*,#213,.T.);
#215=EDGE_LOOP('',(#214));
#216=FACE_BOUND('',#215,.T.);
#217=ADVANCED_FACE('',(#139,#150,#161,#172,#183,#194,#205,#216),#128,.T.);
#218=CARTESIAN_POINT('',(-5.3290705182008E-15,7.105427357601E-15,-1.5639794957644E-15));
#219=DIRECTION('',(1.,-2.5019110414088E-16,3.0526080469597E-16));
#220=DIRECTION('',(-2.9605947323337E-16,0.,1.));
#221=AXIS2_PLACEMENT_3D('',#218,#220,#219);
#222=CYLINDRICAL_SURFACE('',#221,28.4);
#223=ORIENTED_EDGE('',*,*,#42,.F.);
#224=CARTESIAN_POINT('',(28.4,0.,0.));
#225=DIRECTION('',(0.,0.,1.));
#226=VECTOR('',#225,6.);
#227=LINE('',#224,#226);
#228=EDGE_CURVE('',#36,#130,#227,.T.);
#229=ORIENTED_EDGE('',*,*,#228,.T.);
#230=ORIENTED_EDGE('',*,*,#136,.F.);
#231=ORIENTED_EDGE('',*,*,#228,.F.);
#232=EDGE_LOOP('',(#223,#229,#230,#231));
#233=FACE_OUTER_BOUND('',#232,.T.);
#234=ADVANCED_FACE('',(#233),#222,.T.);
#235=CARTESIAN_POINT('',(-1.9984014443253E-15,1.7763568394003E-15,5.8645163235808E-14));
#236=DIRECTION('',(1.,-8.6154124227916E-16,-1.2442960387668E-14));
#237=DIRECTION('',(8.4107804895845E-18,0.,1.));
#238=AXIS2_PLACEMENT_3D('',#235,#237,#236);
#239=CYLINDRICAL_SURFACE('',#238,3.);
#240=CARTESIAN_POINT('',(3.,0.,26.4));
#241=VERTEX_POINT('',#240);
#242=CARTESIAN_POINT('',(3.,0.,0.));
#243=DIRECTION('',(0.,0.,1.));
#244=VECTOR('',#243,26.4);
#245=LINE('',#242,#244);
#246=EDGE_CURVE('',#47,#241,#245,.T.);
#247=ORIENTED_EDGE('',*,*,#246,.T.);
#248=CARTESIAN_POINT('',(-3.5527136788005E-15,2.0411201962889E-15,26.4));
#249=DIRECTION('',(1.,-6.8037339876297E-16,-8.3738264463135E-16));
#250=DIRECTION('',(8.3738264463135E-16,8.3738264463135E-16,1.));
#251=AXIS2_PLACEMENT_3D('',#248,#250,#249);
#252=CIRCLE('',#251,3.);
#253=EDGE_CURVE('',#241,#241,#252,.T.);
#254=ORIENTED_EDGE('',*,*,#253,.T.);
#255=ORIENTED_EDGE('',*,*,#246,.F.);
#256=ORIENTED_EDGE('',*,*,#53,.F.);
#257=EDGE_LOOP('',(#247,#254,#255,#256));
#258=FACE_OUTER_BOUND('',#257,.T.);
#259=CARTESIAN_POINT('',(-1.4003080148268E-14,-3.,18.7));
#260=VERTEX_POINT('',#259);
#261=CARTESIAN_POINT('',(-1.4139539646388E-14,-3.,18.7));
#262=CARTESIAN_POINT('',(-0.23703331912715,-3.,18.7));
#263=CARTESIAN_POINT('',(-0.94813327650854,-2.9157228084354,18.598867370122));
#264=CARTESIAN_POINT('',(-1.5285203165349,-2.605548255188,18.220176306195));
#265=CARTESIAN_POINT('',(-2.1449262316428,-2.1389276034079,17.572682030136));
#266=CARTESIAN_POINT('',(-2.4051472327221,-1.797791385154,17.078580441116));
#267=CARTESIAN_POINT('',(-2.5644402277605,-1.5643140924639,15.881149400692));
#268=CARTESIAN_POINT('',(-2.4003421261867,-1.8514265942006,15.299341386334));
#269=CARTESIAN_POINT('',(-1.7143438996202,-2.5162468618214,14.257839113578));
#270=CARTESIAN_POINT('',(-1.0973569369701,-2.9002587136504,13.819962897828));
#271=CARTESIAN_POINT('',(0.52535103858621,-3.0727404393296,13.612468439937));
#272=CARTESIAN_POINT('',(1.2844120061961,-2.7859466773574,13.93150787712));
#273=CARTESIAN_POINT('',(2.1193328140055,-2.1609639926455,14.795522074952));
#274=CARTESIAN_POINT('',(2.3727810078334,-1.8424614986341,15.255490306941));
#275=CARTESIAN_POINT('',(2.5546216201958,-1.5810902216411,16.295471389051));
#276=CARTESIAN_POINT('',(2.481940671478,-1.7120222773648,16.768712422569));
#277=CARTESIAN_POINT('',(2.0447036116348,-2.2268440965948,17.757967021343));
#278=CARTESIAN_POINT('',(1.357360011048,-2.8272725437882,18.492727052546));
#279=CARTESIAN_POINT('',(0.339340002762,-3.,18.7));
#280=CARTESIAN_POINT('',(-1.3470403167418E-14,-3.,18.7));
#281=B_SPLINE_CURVE_WITH_KNOTS('',3,(#261,#262,#263,#264,#265,#266,#267,#268,#269,#270,#271,#272,#273,#274,#275,#276,#277,#278,#279,#280),.UNSPECIFIED.,.T.,.U.,(4,1,2,2,2,2,2,2,2,1,4),(0.,0.232513387138,0.6975401614141,1.2483338567197,1.8990754130066,2.6766743439845,3.5162375521361,4.0421178003493,4.5804267648218,5.2470934314885,5.5804267648218),.UNSPECIFIED.);
#282=EDGE_CURVE('',#260,#260,#281,.T.);
#283=ORIENTED_EDGE('',*,*,#282,.T.);
#284=EDGE_LOOP('',(#283));
#285=FACE_BOUND('',#284,.T.);
#286=ADVANCED_FACE('',(#258,#285),#239,.F.);
#287=CARTESIAN_POINT('',(-11.875,20.56810333988,0.));
#288=DIRECTION('',(1.,0.,0.));
#289=DIRECTION('',(0.,0.,1.));
#290=AXIS2_PLACEMENT_3D('',#287,#289,#288);
#291=CYLINDRICAL_SURFACE('',#290,2.6);
#292=ORIENTED_EDGE('',*,*,#64,.F.);
#293=CARTESIAN_POINT('',(-9.275,20.56810333988,0.));
#294=DIRECTION('',(0.,0.,1.));
#295=VECTOR('',#294,6.);
#296=LINE('',#293,#295);
#297=EDGE_CURVE('',#58,#152,#296,.T.);
#298=ORIENTED_EDGE('',*,*,#297,.T.);
#299=ORIENTED_EDGE('',*,*,#158,.F.);
#300=ORIENTED_EDGE('',*,*,#297,.F.);
#301=EDGE_LOOP('',(#292,#298,#299,#300));
#302=FACE_OUTER_BOUND('',#301,.T.);
#303=ADVANCED_FACE('',(#302),#291,.F.);
#304=CARTESIAN_POINT('',(11.25,19.48557158515,0.));
#305=DIRECTION('',(1.,0.,0.));
#306=DIRECTION('',(0.,0.,1.));
#307=AXIS2_PLACEMENT_3D('',#304,#306,#305);
#308=CYLINDRICAL_SURFACE('',#307,2.6);
#309=ORIENTED_EDGE('',*,*,#75,.F.);
#310=CARTESIAN_POINT('',(13.85,19.48557158515,0.));
#311=DIRECTION('',(0.,0.,1.));
#312=VECTOR('',#311,6.);
#313=LINE('',#310,#312);
#314=EDGE_CURVE('',#69,#163,#313,.T.);
#315=ORIENTED_EDGE('',*,*,#314,.T.);
#316=ORIENTED_EDGE('',*,*,#169,.F.);
#317=ORIENTED_EDGE('',*,*,#314,.F.);
#318=EDGE_LOOP('',(#309,#315,#316,#317));
#319=FACE_OUTER_BOUND('',#318,.T.);
#320=ADVANCED_FACE('',(#319),#308,.F.);
#321=CARTESIAN_POINT('',(-22.5,3.1086244689504E-15,0.));
#322=DIRECTION('',(1.,-1.4405541555796E-15,0.));
#323=DIRECTION('',(0.,0.,1.));
#324=AXIS2_PLACEMENT_3D('',#321,#323,#322);
#325=CYLINDRICAL_SURFACE('',#324,2.6);
#326=ORIENTED_EDGE('',*,*,#86,.F.);
#327=CARTESIAN_POINT('',(-19.9,-6.3681633555662E-16,0.));
#328=DIRECTION('',(0.,0.,1.));
#329=VECTOR('',#328,6.);
#330=LINE('',#327,#329);
#331=EDGE_CURVE('',#80,#174,#330,.T.);
#332=ORIENTED_EDGE('',*,*,#331,.T.);
#333=ORIENTED_EDGE('',*,*,#180,.F.);
#334=ORIENTED_EDGE('',*,*,#331,.F.);
#335=EDGE_LOOP('',(#326,#332,#333,#334));
#336=FACE_OUTER_BOUND('',#335,.T.);
#337=ADVANCED_FACE('',(#336),#325,.F.);
#338=CARTESIAN_POINT('',(11.25,-19.48557158515,0.));
#339=DIRECTION('',(1.,-1.3664283380002E-15,0.));
#340=DIRECTION('',(0.,0.,1.));
#341=AXIS2_PLACEMENT_3D('',#338,#340,#339);
#342=CYLINDRICAL_SURFACE('',#341,2.6);
#343=ORIENTED_EDGE('',*,*,#97,.F.);
#344=CARTESIAN_POINT('',(13.85,-19.48557158515,0.));
#345=DIRECTION('',(0.,0.,1.));
#346=VECTOR('',#345,6.);
#347=LINE('',#344,#346);
#348=EDGE_CURVE('',#91,#185,#347,.T.);
#349=ORIENTED_EDGE('',*,*,#348,.T.);
#350=ORIENTED_EDGE('',*,*,#191,.F.);
#351=ORIENTED_EDGE('',*,*,#348,.F.);
#352=EDGE_LOOP('',(#343,#349,#350,#351));
#353=FACE_OUTER_BOUND('',#352,.T.);
#354=ADVANCED_FACE('',(#353),#342,.F.);
#355=CARTESIAN_POINT('',(23.75,-2.2204460492503E-15,0.));
#356=DIRECTION('',(1.,6.0908835142065E-16,0.));
#357=DIRECTION('',(0.,0.,1.));
#358=AXIS2_PLACEMENT_3D('',#355,#357,#356);
#359=CYLINDRICAL_SURFACE('',#358,2.6);
#360=ORIENTED_EDGE('',*,*,#108,.F.);
#361=CARTESIAN_POINT('',(26.35,-6.3681633555662E-16,0.));
#362=DIRECTION('',(0.,0.,1.));
#363=VECTOR('',#362,6.);
#364=LINE('',#361,#363);
#365=EDGE_CURVE('',#102,#196,#364,.T.);
#366=ORIENTED_EDGE('',*,*,#365,.T.);
#367=ORIENTED_EDGE('',*,*,#202,.F.);
#368=ORIENTED_EDGE('',*,*,#365,.F.);
#369=EDGE_LOOP('',(#360,#366,#367,#368));
#370=FACE_OUTER_BOUND('',#369,.T.);
#371=ADVANCED_FACE('',(#370),#359,.F.);
#372=CARTESIAN_POINT('',(-11.875,-20.56810333988,0.));
#373=DIRECTION('',(1.,0.,0.));
#374=DIRECTION('',(0.,0.,1.));
#375=AXIS2_PLACEMENT_3D('',#372,#374,#373);
#376=CYLINDRICAL_SURFACE('',#375,2.6);
#377=ORIENTED_EDGE('',*,*,#119,.F.);
#378=CARTESIAN_POINT('',(-9.275,-20.56810333988,0.));
#379=DIRECTION('',(0.,0.,1.));
#380=VECTOR('',#379,6.);
#381=LINE('',#378,#380);
#382=EDGE_CURVE('',#113,#207,#381,.T.);
#383=ORIENTED_EDGE('',*,*,#382,.T.);
#384=ORIENTED_EDGE('',*,*,#213,.F.);
#385=ORIENTED_EDGE('',*,*,#382,.F.);
#386=EDGE_LOOP('',(#377,#383,#384,#385));
#387=FACE_OUTER_BOUND('',#386,.T.);
#388=ADVANCED_FACE('',(#387),#376,.F.);
#389=CARTESIAN_POINT('',(5.3290705182008E-15,0.,6.));
#390=DIRECTION('',(1.,-3.3395111654356E-30,-2.9605947323338E-16));
#391=DIRECTION('',(0.,0.,1.));
#392=AXIS2_PLACEMENT_3D('',#389,#391,#390);
#393=CYLINDRICAL_SURFACE('',#392,15.);
#394=ORIENTED_EDGE('',*,*,#147,.F.);
#395=CARTESIAN_POINT('',(15.,0.,26.4));
#396=VERTEX_POINT('',#395);
#397=CARTESIAN_POINT('',(15.,0.,6.));
#398=DIRECTION('',(0.,0.,1.));
#399=VECTOR('',#398,20.4);
#400=LINE('',#397,#399);
#401=EDGE_CURVE('',#141,#396,#400,.T.);
#402=ORIENTED_EDGE('',*,*,#401,.T.);
#403=CARTESIAN_POINT('',(3.5527136788005E-15,4.6215912508029E-31,26.4));
#404=DIRECTION('',(1.,-1.1618022605101E-32,6.9371049660431E-17));
#405=DIRECTION('',(6.9371049660431E-17,1.6747652892627E-16,-1.));
#406=AXIS2_PLACEMENT_3D('',#403,#405,#404);
#407=CIRCLE('',#406,15.);
#408=EDGE_CURVE('',#396,#396,#407,.T.);
#409=ORIENTED_EDGE('',*,*,#408,.T.);
#410=ORIENTED_EDGE('',*,*,#401,.F.);
#411=EDGE_LOOP('',(#394,#402,#409,#410));
#412=FACE_OUTER_BOUND('',#411,.T.);
#413=CARTESIAN_POINT('',(-1.803775173272E-15,-15.000637346238,18.7));
#414=VERTEX_POINT('',#413);
#415=CARTESIAN_POINT('',(-1.3871042972929E-15,-15.,18.7));
#416=CARTESIAN_POINT('',(0.34007517187159,-15.,18.7));
#417=CARTESIAN_POINT('',(1.3603006874863,-14.965304663243,18.491827979458));
#418=CARTESIAN_POINT('',(2.1099688551509,-14.852745658056,17.699791968397));
#419=CARTESIAN_POINT('',(2.6516874825826,-14.767049499606,16.240350121361));
#420=CARTESIAN_POINT('',(2.4993312595927,-14.80089752076,15.315239291374));
#421=CARTESIAN_POINT('',(1.3361565828172,-14.952958050382,13.875988258273));
#422=CARTESIAN_POINT('',(0.35694171872936,-15.02484569209,13.545993239379));
#423=CARTESIAN_POINT('',(-1.7010187201467,-14.945634757865,14.034081413482));
#424=CARTESIAN_POINT('',(-2.5,-14.790199457749,15.035944731194));
#425=CARTESIAN_POINT('',(-2.5,-14.790199457749,17.540471863924));
#426=CARTESIAN_POINT('',(-1.4544047167488,-14.987339702219,18.623929786439));
#427=CARTESIAN_POINT('',(-0.10660724960281,-14.999651995084,18.697911664493));
#428=CARTESIAN_POINT('',(-0.060921797447882,-14.999930410024,18.699582460142));
#429=CARTESIAN_POINT('',(-0.015230449361972,-15.,18.7));
#430=CARTESIAN_POINT('',(-1.3871042972929E-15,-15.,18.7));
#431=B_SPLINE_CURVE_WITH_KNOTS('',3,(#415,#416,#417,#418,#419,#420,#421,#422,#423,#424,#425,#426,#427,#428,#429,#430),.UNSPECIFIED.,.T.,.U.,(4,1,2,2,2,2,2,1,4),(0.,0.3333333333333,1.,1.8781247824283,2.8405738331558,3.9990764234496,5.3331540812614,5.3639533364547,5.3793529640513),.UNSPECIFIED.);
#432=EDGE_CURVE('',#414,#414,#431,.T.);
#433=ORIENTED_EDGE('',*,*,#432,.T.);
#434=EDGE_LOOP('',(#433));
#435=FACE_BOUND('',#434,.T.);
#436=ADVANCED_FACE('',(#412,#435),#393,.T.);
#437=CARTESIAN_POINT('',(-4.0192378864668,-1.4210854715202E-14,26.4));
#438=DIRECTION('',(1.,0.,0.));
#439=DIRECTION('',(0.,0.,1.));
#440=AXIS2_PLACEMENT_3D('',#437,#439,#438);
#441=PLANE('',#440);
#442=ORIENTED_EDGE('',*,*,#408,.F.);
#443=EDGE_LOOP('',(#442));
#444=FACE_OUTER_BOUND('',#443,.T.);
#445=ORIENTED_EDGE('',*,*,#253,.F.);
#446=EDGE_LOOP('',(#445));
#447=FACE_BOUND('',#446,.T.);
#448=ADVANCED_FACE('',(#444,#447),#441,.T.);
#449=CARTESIAN_POINT('',(-4.4408920985006E-15,-15.098001902193,16.2));
#450=DIRECTION('',(9.2788172482658E-16,1.4210854715202E-15,1.));
#451=DIRECTION('',(-1.0261669193847E-15,1.,-5.1713046609035E-16));
#452=AXIS2_PLACEMENT_3D('',#449,#451,#450);
#453=CYLINDRICAL_SURFACE('',#452,2.5);
#454=CARTESIAN_POINT('',(-1.803775173272E-15,-15.000637346238,18.7));
#455=DIRECTION('',(-1.0165547564705E-15,1.,0.));
#456=VECTOR('',#455,12.000637346238);
#457=LINE('',#454,#456);
#458=EDGE_CURVE('',#414,#260,#457,.T.);
#459=ORIENTED_EDGE('',*,*,#458,.T.);
#460=ORIENTED_EDGE('',*,*,#282,.F.);
#461=ORIENTED_EDGE('',*,*,#458,.F.);
#462=ORIENTED_EDGE('',*,*,#432,.F.);
#463=EDGE_LOOP('',(#459,#460,#461,#462));
#464=FACE_OUTER_BOUND('',#463,.T.);
#465=ADVANCED_FACE('',(#464),#453,.F.);
#466=CLOSED_SHELL('',(#123,#217,#234,#286,#303,#320,#337,#354,#371,#388,#436,#448,#465));
#467=COLOUR_RGB('',0.745098,0.901961,0.960784);
#468=FILL_AREA_STYLE_COLOUR('',#467);
#469=FILL_AREA_STYLE('',(#468));
#470=SURFACE_STYLE_FILL_AREA(#469);
#471=SURFACE_SIDE_STYLE('',(#470));
#472=SURFACE_STYLE_USAGE(.BOTH.,#471);
#473=PRESENTATION_STYLE_ASSIGNMENT((#472));
#474=OVER_RIDING_STYLED_ITEM('',(#473),#123,#466);
#475=OVER_RIDING_STYLED_ITEM('',(#473),#217,#466);
#476=OVER_RIDING_STYLED_ITEM('',(#473),#234,#466);
#477=OVER_RIDING_STYLED_ITEM('',(#473),#286,#466);
#478=OVER_RIDING_STYLED_ITEM('',(#473),#303,#466);
#479=OVER_RIDING_STYLED_ITEM('',(#473),#320,#466);
#480=OVER_RIDING_STYLED_ITEM('',(#473),#337,#466);
#481=OVER_RIDING_STYLED_ITEM('',(#473),#354,#466);
#482=OVER_RIDING_STYLED_ITEM('',(#473),#371,#466);
#483=OVER_RIDING_STYLED_ITEM('',(#473),#388,#466);
#484=OVER_RIDING_STYLED_ITEM('',(#473),#436,#466);
#485=OVER_RIDING_STYLED_ITEM('',(#473),#448,#466);
#486=COLOUR_RGB('',0.54902,0.54902,0.921569);
#487=FILL_AREA_STYLE_COLOUR('',#486);
#488=FILL_AREA_STYLE('',(#487));
#489=SURFACE_STYLE_FILL_AREA(#488);
#490=SURFACE_SIDE_STYLE('',(#489));
#491=SURFACE_STYLE_USAGE(.BOTH.,#490);
#492=PRESENTATION_STYLE_ASSIGNMENT((#491));
#493=OVER_RIDING_STYLED_ITEM('',(#492),#465,#466);
#494=MANIFOLD_SOLID_BREP('S1',#466);
#495=ADVANCED_BREP_SHAPE_REPRESENTATION('',(#494),#5);
#496=SHAPE_REPRESENTATION_RELATIONSHIP('NONE', 'NONE', #28, #495);
#497=PRESENTATION_LAYER_ASSIGNMENT('图层000','',(#494));
#498=MECHANICAL_DESIGN_GEOMETRIC_PRESENTATION_REPRESENTATION('',(#474,#475,#476,#477,#478,#479,#480,#481,#482,#483,#484,#485,#493),#5);
ENDSEC;
END-ISO-10303-21;
